<svg version="1.2" xmlns="http://www.w3.org/2000/svg" viewBox="0 0 95 95" width="32" height="32">
	<style>
		.s0 { fill: #000000 } 
	</style>
	<g id="layer1">
		<path id="path4286" class="s0" d="m83.76 11.21c-11.91-11.91-31.39-11.91-43.3 0-11.91 11.91-11.91 31.4 0 43.31 11.91 11.91 31.39 11.91 43.3 0 11.91-11.91 11.91-31.4 0-43.31zm-7.98 7.98c7.6 7.6 7.6 19.75 0 27.35-7.6 7.6-19.75 7.6-27.35 0-7.59-7.6-7.59-19.75 0-27.35 7.6-7.6 19.75-7.6 27.35 0zm-43.51 29.27l-30.27 30.27 14.24 14.25 30.27-30.27c-3.01-1.45-5.84-3.42-8.33-5.92-2.49-2.49-4.46-5.31-5.91-8.33z"/>
	</g>
</svg>